<?xml version="1.0" encoding="UTF-8" standalone="no"?>
<svg
   xmlns:dc="http://purl.org/dc/elements/1.1/"
   xmlns:cc="http://creativecommons.org/ns#"
   xmlns:rdf="http://www.w3.org/1999/02/22-rdf-syntax-ns#"
   xmlns:svg="http://www.w3.org/2000/svg"
   xmlns="http://www.w3.org/2000/svg"
   xmlns:xlink="http://www.w3.org/1999/xlink"
   xmlns:sodipodi="http://sodipodi.sourceforge.net/DTD/sodipodi-0.dtd"
   xmlns:inkscape="http://www.inkscape.org/namespaces/inkscape"
   width="128"
   height="128"
   viewBox="0 0 33.866666 33.866667"
   version="1.1"
   id="svg6"
   sodipodi:docname="apparence.svg"
   inkscape:version="1.0.1 (3bc2e813f5, 2020-09-07)">
  <metadata
     id="metadata82">
    <rdf:RDF>
      <cc:Work
         rdf:about="">
        <dc:format>image/svg+xml</dc:format>
        <dc:type
           rdf:resource="http://purl.org/dc/dcmitype/StillImage" />
      </cc:Work>
    </rdf:RDF>
  </metadata>
  <defs
     id="defs2">
    <linearGradient
       inkscape:collect="always"
       id="linearGradient1265">
      <stop
         style="stop-color:#ff0000;stop-opacity:1"
         offset="0"
         id="stop1261" />
      <stop
         style="stop-color:#000080;stop-opacity:1"
         offset="1"
         id="stop1263" />
    </linearGradient>
    <linearGradient
       inkscape:collect="always"
       id="linearGradient984">
      <stop
         style="stop-color:#782121;stop-opacity:1;"
         offset="0"
         id="stop980" />
      <stop
         style="stop-color:#de87c9;stop-opacity:1"
         offset="1"
         id="stop982" />
    </linearGradient>
    <linearGradient
       inkscape:collect="always"
       id="linearGradient974">
      <stop
         style="stop-color:#000000;stop-opacity:1"
         offset="0"
         id="stop972" />
      <stop
         style="stop-color:#0000ff;stop-opacity:1;"
         offset="1"
         id="stop970" />
    </linearGradient>
    <linearGradient
       gradientTransform="translate(0,-896)"
       gradientUnits="userSpaceOnUse"
       y2="992"
       x2="32"
       y1="32"
       x1="32"
       id="lgrad">
      <stop
         id="stop2"
         stop-color="#f8f8f8"
         offset="0%" />
      <stop
         id="stop4"
         stop-color="#ccc"
         offset="100%" />
    </linearGradient>
    <radialGradient
       gradientTransform="translate(0,-896)"
       gradientUnits="userSpaceOnUse"
       r="440"
       cy="512"
       cx="512"
       fy="494.39999"
       fx="512"
       y2="100%"
       x2="0%"
       y1="0%"
       x1="0%"
       id="rgrad">
      <stop
         id="stop7"
         stop-color="#00f0ff"
         offset="0%" />
      <stop
         id="stop9"
         stop-color="#0070e0"
         offset="100%" />
    </radialGradient>
    <radialGradient
       id="rgrad-3"
       x1="0%"
       y1="0%"
       x2="0%"
       y2="100%"
       fx="523.57568"
       fy="306.1813"
       cx="523.57568"
       cy="306.1813"
       r="440"
       gradientUnits="userSpaceOnUse"
       gradientTransform="matrix(0.03099337,0,0,0.03032562,85.198869,42.985295)">
      <stop
         offset="0%"
         stop-color="#00f0ff"
         id="stop7-6"
         style="stop-color:#03d7e4;stop-opacity:1" />
      <stop
         offset="100%"
         stop-color="#0070e0"
         id="stop9-7" />
    </radialGradient>
    <clipPath
       id="clipPath888"
       clipPathUnits="userSpaceOnUse">
      <rect
         ry="3.686466"
         rx="3.686466"
         y="1.4912144"
         x="1.4912138"
         height="30.884235"
         width="30.884235"
         id="rect890"
         style="fill:#000000;stroke-width:0.465;stroke-linecap:round;stroke-linejoin:round;paint-order:markers stroke fill" />
    </clipPath>
    <linearGradient
       inkscape:collect="always"
       id="linearGradient839">
      <stop
         style="stop-color:#ffd39f;stop-opacity:1"
         offset="0"
         id="stop835" />
      <stop
         style="stop-color:#e2e0c1;stop-opacity:1"
         offset="1"
         id="stop837" />
    </linearGradient>
    <linearGradient
       y2="94.203697"
       x2="175.84618"
       y1="134.82233"
       x1="169.37762"
       gradientTransform="matrix(0.49430116,0,0,0.49430116,-54.5234,-37.442677)"
       gradientUnits="userSpaceOnUse"
       id="linearGradient883"
       xlink:href="#linearGradient839"
       inkscape:collect="always" />
    <clipPath
       id="clipPath891"
       clipPathUnits="userSpaceOnUse">
      <rect
         ry="6.2049346"
         rx="6.2049346"
         y="5.3033185"
         x="-3.5767143"
         height="24.533649"
         width="24.533649"
         id="rect893"
         style="fill:url(#linearGradient895);fill-opacity:1;fill-rule:evenodd;stroke-width:0.130783" />
    </clipPath>
    <linearGradient
       y2="94.203697"
       x2="175.84618"
       y1="134.82233"
       x1="169.37762"
       gradientTransform="matrix(0.49430117,0,0,0.49430117,-62.766621,-36.805867)"
       gradientUnits="userSpaceOnUse"
       id="linearGradient895"
       xlink:href="#linearGradient839"
       inkscape:collect="always" />
    <radialGradient
       r="76.835938"
       fy="-22.706251"
       fx="-584.99414"
       cy="-22.706251"
       cx="-584.99414"
       gradientTransform="matrix(1.1607449,0,0,1.0052364,433.83136,32.501473)"
       gradientUnits="userSpaceOnUse"
       id="radialGradient2516"
       xlink:href="#linearGradient890"
       inkscape:collect="always" />
    <linearGradient
       inkscape:collect="always"
       id="linearGradient890">
      <stop
         id="stop886"
         offset="0"
         style="stop-color:#b3b3b3;stop-opacity:1" />
      <stop
         id="stop888"
         offset="1"
         style="stop-color:#4d4d4d;stop-opacity:1" />
    </linearGradient>
    <radialGradient
       inkscape:collect="always"
       xlink:href="#linearGradient974"
       id="radialGradient976"
       cx="62.892738"
       cy="32.108166"
       fx="62.892738"
       fy="32.108166"
       r="11.318904"
       gradientUnits="userSpaceOnUse" />
    <linearGradient
       inkscape:collect="always"
       xlink:href="#linearGradient984"
       id="linearGradient988"
       x1="154.35547"
       y1="101.07092"
       x2="245.78535"
       y2="48.283855"
       gradientUnits="userSpaceOnUse" />
    <linearGradient
       inkscape:collect="always"
       xlink:href="#linearGradient984"
       id="linearGradient1008"
       x1="155.50781"
       y1="142.7525"
       x2="319.42245"
       y2="142.7525"
       gradientUnits="userSpaceOnUse" />
    <linearGradient
       inkscape:collect="always"
       xlink:href="#linearGradient984"
       id="linearGradient1037"
       gradientUnits="userSpaceOnUse"
       x1="155.50781"
       y1="142.7525"
       x2="319.42245"
       y2="142.7525" />
    <filter
       inkscape:collect="always"
       style="color-interpolation-filters:sRGB"
       id="filter1257"
       x="-0.2087149"
       width="1.4174298"
       y="-0.2087149"
       height="1.4174298">
      <feGaussianBlur
         inkscape:collect="always"
         stdDeviation="1.9933507"
         id="feGaussianBlur1259" />
    </filter>
    <radialGradient
       inkscape:collect="always"
       xlink:href="#linearGradient1265"
       id="radialGradient1269"
       cx="16.933332"
       cy="16.933332"
       fx="16.933332"
       fy="16.933332"
       r="16.244751"
       gradientUnits="userSpaceOnUse" />
  </defs>
  <sodipodi:namedview
     inkscape:snap-bbox-midpoints="true"
     inkscape:snap-bbox="true"
     inkscape:document-rotation="0"
     id="base"
     pagecolor="#ffffff"
     bordercolor="#666666"
     borderopacity="1.0"
     inkscape:pageopacity="0.0"
     inkscape:pageshadow="2"
     inkscape:zoom="1.7181854"
     inkscape:cx="118.05474"
     inkscape:cy="114.99238"
     inkscape:document-units="mm"
     inkscape:current-layer="layer1"
     showgrid="false"
     units="px"
     inkscape:window-width="1280"
     inkscape:window-height="736"
     inkscape:window-x="0"
     inkscape:window-y="0"
     inkscape:window-maximized="1"
     inkscape:snap-page="true"
     inkscape:bbox-paths="true"
     inkscape:snap-bbox-edge-midpoints="true"
     inkscape:bbox-nodes="true"
     inkscape:snap-global="true"
     inkscape:snap-intersection-paths="true" />
  <g
     inkscape:label="Layer 1"
     inkscape:groupmode="layer"
     id="layer1">
    <rect
       style="opacity:0.998023;fill:url(#radialGradient1269);fill-opacity:1;stroke:#999999;stroke-width:0.179355;stroke-linecap:round;stroke-linejoin:round;paint-order:markers stroke fill;filter:url(#filter1257)"
       id="rect891"
       width="22.921419"
       height="22.921419"
       x="5.4726229"
       y="5.4726229"
       rx="0"
       ry="0" />
    <path
       id="rect906"
       style="fill:#0000ff;stroke-width:9.14646;stroke-linecap:round;paint-order:markers stroke fill"
       d="M 173.4375 -29.666016 C 174.36809 -29.568258 175.27314 -29.386719 176.23047 -29.386719 L 252.18555 -29.386719 C 266.90839 -29.386719 278.76172 -41.238098 278.76172 -55.960938 L 278.76172 -104.2793 C 278.76172 -119.00214 266.90839 -130.85352 252.18555 -130.85352 L 176.23047 -130.85352 C 175.27115 -130.85352 174.3641 -130.67238 173.43164 -130.57422 C 174.29137 -130.48404 175.17886 -130.484 176.01172 -130.31445 C 177.74485 -129.96164 179.41503 -129.44204 181.00586 -128.77148 C 182.59668 -128.10093 184.10806 -127.27939 185.52148 -126.32617 C 186.9349 -125.37296 188.25025 -124.28869 189.45117 -123.08789 C 190.65209 -121.88709 191.73808 -120.56956 192.69141 -119.15625 C 193.64474 -117.74294 194.46607 -116.23331 195.13672 -114.64258 C 195.80737 -113.05185 196.32682 -111.38152 196.67969 -109.64844 C 197.03256 -107.91535 197.21875 -106.11965 197.21875 -104.2793 L 197.21875 -55.962891 C 197.21875 -54.122536 197.03256 -52.326886 196.67969 -50.59375 C 196.32682 -48.860614 195.80737 -47.190434 195.13672 -45.599609 C 194.46607 -44.008785 193.64474 -42.497404 192.69141 -41.083984 C 191.73808 -39.670565 190.65209 -38.355219 189.45117 -37.154297 C 188.25025 -35.953375 186.9349 -34.867394 185.52148 -33.914062 C 184.10806 -32.960731 182.59668 -32.139397 181.00586 -31.46875 C 179.41503 -30.798103 177.74485 -30.276698 176.01172 -29.923828 C 175.18076 -29.754644 174.2952 -29.756184 173.4375 -29.666016 z "
       transform="scale(0.26458333)" />
    <path
       id="path917"
       style="fill:#0000ff;stroke-width:2.42;stroke-linecap:round;paint-order:markers stroke fill"
       d="m 35.250676,-4.7005927 c 0.226933,-0.023857 0.461238,-0.02345 0.681096,-0.068213 0.458557,-0.093363 0.900459,-0.2313186 1.321366,-0.4087606 0.420905,-0.177442 0.820791,-0.3947533 1.194758,-0.6469888 0.373967,-0.2522357 0.721987,-0.5395682 1.03973,-0.8573121 0.317744,-0.317744 0.605079,-0.6657626 0.857314,-1.0397297 0.252235,-0.3739674 0.469545,-0.7738536 0.646988,-1.1947591 0.177443,-0.4209058 0.314881,-0.8628076 0.408244,-1.321366 0.09336,-0.458559 0.142627,-0.933658 0.142627,-1.420585 v -12.783717 c 0,-0.486926 -0.04926,-0.962038 -0.142627,-1.420585 -0.09336,-0.458544 -0.230801,-0.900485 -0.408244,-1.321366 -0.177443,-0.420881 -0.394753,-0.820304 -0.646988,-1.194242 -0.252235,-0.373938 -0.53957,-0.722535 -0.857314,-1.040246 -0.317743,-0.317712 -0.665763,-0.604592 -1.03973,-0.856795 -0.373967,-0.252206 -0.773853,-0.469572 -1.194758,-0.646988 -0.420907,-0.177419 -0.862809,-0.314897 -1.321366,-0.408245 -0.220361,-0.04486 -0.455176,-0.04487 -0.682646,-0.06873 -3.539652,0.372615 -6.291088,3.315599 -6.291088,6.957197 v 12.784233 c 0,3.6421248 2.752243,6.585282 6.292638,6.9571983 z" />
    <g
       id="g1035"
       transform="matrix(0.72714246,0,0,0.72714246,-28.640802,-9.7255994)">
      <path
         id="circle937"
         style="fill:#ececec;stroke-width:2.64633;stroke-linecap:round;paint-order:markers stroke fill"
         d="M 84.453291,32.108166 C 85.532391,33.537951 71.96338,43.673441 62.892738,43.42707 51.788423,43.125462 38.046776,33.177184 41.332186,32.108166 c -0.677916,0.03661 9.794159,-11.539013 21.560552,-11.318904 7.373214,0.137927 21.417091,11.725593 21.560553,11.318904 z"
         sodipodi:nodetypes="cscsc" />
      <circle
         style="fill:url(#radialGradient976);fill-opacity:1;stroke-width:2.42;stroke-linecap:round;paint-order:markers stroke fill"
         id="path933"
         cx="62.892738"
         cy="32.108166"
         r="11.318904" />
      <circle
         style="fill:#1a1a1a;stroke-width:1.60151;stroke-linecap:round;paint-order:markers stroke fill"
         id="circle935"
         cx="62.892738"
         cy="32.108166"
         r="7.4906235" />
      <path
         style="fill:#ff0000;stroke-width:2.64634;stroke-linecap:round;paint-order:markers stroke fill"
         d="m 54.567183,46.574399 c -0.01675,0.202046 -0.03231,0.404259 -0.05064,0.606163 0.1408,-0.271616 0.168415,-0.482364 0.06718,-0.616498 -0.0021,0.0063 -0.0076,0.0097 -0.01654,0.01035 z"
         id="path966" />
      <path
         style="fill:url(#linearGradient988);fill-opacity:1;stroke-width:10.0019;stroke-linecap:round;paint-order:markers stroke fill"
         d="m 235.62305,78.566406 c -43.61711,0.531257 -81.92842,42.923314 -79.40625,42.787114 -1.27148,0.41371 -1.85955,1.18429 -1.86133,2.22656 18.38804,-19.63683 78.10702,-17.88522 164.77539,-2.1875 -2.13061,0.13905 -52.34844,-44.441994 -81.42578,-42.818361 -0.69391,0.03875 -1.3897,-0.01624 -2.08203,-0.0078 z"
         transform="scale(0.26458333)"
         id="path941"
         sodipodi:nodetypes="scccsss" />
      <path
         id="path994"
         style="fill:url(#linearGradient1037);fill-opacity:1;stroke-width:10.0019;stroke-linecap:round;paint-order:markers stroke fill"
         d="m 319.19336,121.35352 c -0.008,0.024 -0.0287,0.0368 -0.0625,0.0391 -56.28539,38.82831 -109.93744,34.61269 -163.11328,5.99023 8.47218,11.77639 48.22944,35.84319 81.6875,36.75196 34.28274,0.93116 85.56677,-37.37734 81.48828,-42.78125 z m -163.68555,5.3164 c 0.0211,0.033 0.0467,0.0683 0.0684,0.10156 z"
         transform="scale(0.26458333)"
         sodipodi:nodetypes="cccsccccc" />
      <g
         transform="matrix(0.11131213,0,0,0.11131213,98.901006,20.620851)"
         id="g1384">
        <g
           id="g2406"
           transform="translate(-149.26863,159.48487)">
          <g
             id="g2508">
            <g
               id="g2403"
               style="fill:#a0872c;fill-opacity:1;stroke-width:3.54898;stroke-linecap:round;stroke-linejoin:round;paint-order:markers stroke fill"
               transform="translate(343.40639,32.587995)">
              <path
                 id="path2377"
                 d="m -600.955,-50.0189 -38.418,66.541 12.351,11.6805 38.418,-66.541 z" />
              <path
                 id="path2379"
                 d="m -639.373,16.5221 38.418,66.543 12.351,11.6805 -38.418,-66.543 z" />
              <path
                 id="path2381"
                 d="m -600.955,83.0651 h 76.836 l 12.351,11.6805 h -44.13532 -32.70068 z"
                 style="fill:#333333"
                 sodipodi:nodetypes="cccccc" />
              <path
                 id="path2383"
                 d="m -524.119,83.0651 38.418,-66.543 12.351,11.6805 -38.418,66.543 z"
                 style="fill:#060606;fill-opacity:1" />
              <path
                 id="path2385"
                 d="m -485.701,16.5221 -33.44087,-57.92047 -4.97713,-8.62053 12.351,11.6805 38.418,66.541 z"
                 style="fill:#333333"
                 sodipodi:nodetypes="cccccc" />
              <path
                 id="path2387"
                 d="m -524.119,-50.0189 h -76.836 l 12.351,11.6805 h 76.836 z"
                 style="fill:#333333" />
              <path
                 id="path2389"
                 d="m -562.537,-11.2962 c 7.4,1e-4 14.126,2.89001 19.11,7.60293 l 12.351,11.68048 c -4.983,-4.71291 -11.709,-7.602859 -19.11,-7.602941 z"
                 style="fill:#1a1a1a" />
              <path
                 id="path2391"
                 d="m -543.427,-3.69327 c 5.362,5.07099 8.708,12.25247 8.708,20.21537 l 12.352,11.6805 c 0,-7.9629 -3.346,-15.1444 -8.709,-20.21539 z" />
              <path
                 id="path2393"
                 d="m -534.719,16.5221 c 0,15.3636 -12.455,27.8182 -27.818,27.8184 l 12.351,11.6805 c 15.364,-2e-4 27.819,-12.4548 27.819,-27.8184 z" />
              <path
                 id="path2395"
                 d="m -562.537,44.3405 c -7.401,-10e-5 -14.127,-2.89 -19.11,-7.6029 l 12.351,11.6804 c 4.984,4.713 11.71,7.6029 19.11,7.603 z" />
              <path
                 id="path2397"
                 d="m -581.647,36.7376 c -5.363,-5.071 -8.709,-12.2525 -8.709,-20.2155 l 12.352,11.6805 c 0,7.963 3.346,15.1445 8.708,20.2154 z"
                 style="fill:#1a1a1a" />
              <path
                 id="path2399"
                 d="m -590.356,16.5221 c 0,-15.36354 12.455,-27.8181 27.819,-27.8183 l 12.351,11.680469 c -15.363,1.7e-4 -27.818,12.454731 -27.818,27.818331 z"
                 style="fill:#000000" />
              <path
                 id="path2401"
                 d="m -562.537,-11.2962 -38.418,-38.7227 12.351,11.6805 38.418,38.722669 z"
                 style="fill:#1a1a1a" />
            </g>
            <path
               d="m -257.54894,-17.43088 -38.41797,66.541016 38.41797,66.542964 H -180.713 L -142.29503,49.110136 -180.713,-17.43088 Z m 38.41797,38.722656 a 27.818668,27.818668 0 0 1 27.81836,27.81836 27.818668,27.818668 0 0 1 -27.81836,27.818359 27.818668,27.818668 0 0 1 -27.81836,-27.818359 27.818668,27.818668 0 0 1 27.81836,-27.81836 z"
               style="fill:#a0872c;fill-opacity:1;stroke-width:3.54898;stroke-linecap:round;stroke-linejoin:round;paint-order:markers stroke fill"
               id="path889" />
            <path
               id="path889-3"
               style="fill:url(#radialGradient2516);fill-opacity:1;stroke-width:3.54898;stroke-linecap:round;stroke-linejoin:round;paint-order:markers stroke fill"
               d="m -257.54852,-17.430921 -38.41797,66.541016 38.41797,66.542975 h 76.83594 l 38.41797,-66.542975 -38.41797,-66.541016 z m 38.41797,38.722656 a 27.818668,27.818668 0 0 1 27.81836,27.81836 27.818668,27.818668 0 0 1 -27.81836,27.818359 27.818668,27.818668 0 0 1 -27.81836,-27.818359 27.818668,27.818668 0 0 1 27.81836,-27.81836 z" />
          </g>
        </g>
      </g>
    </g>
  </g>
</svg>
