<?xml version="1.0" encoding="UTF-8" standalone="no"?>
<svg
   xmlns:dc="http://purl.org/dc/elements/1.1/"
   xmlns:cc="http://creativecommons.org/ns#"
   xmlns:rdf="http://www.w3.org/1999/02/22-rdf-syntax-ns#"
   xmlns:svg="http://www.w3.org/2000/svg"
   xmlns="http://www.w3.org/2000/svg"
   xmlns:xlink="http://www.w3.org/1999/xlink"
   xmlns:sodipodi="http://sodipodi.sourceforge.net/DTD/sodipodi-0.dtd"
   xmlns:inkscape="http://www.inkscape.org/namespaces/inkscape"
   width="128"
   height="128"
   viewBox="0 0 33.866666 33.866667"
   version="1.1"
   id="svg6"
   sodipodi:docname="deezer.svg"
   inkscape:version="1.0.1 (3bc2e813f5, 2020-09-07)"
   inkscape:export-filename="/home/lucas/deezer.png"
   inkscape:export-xdpi="3072"
   inkscape:export-ydpi="3072">
  <metadata
     id="metadata82">
    <rdf:RDF>
      <cc:Work
         rdf:about="">
        <dc:format>image/svg+xml</dc:format>
        <dc:type
           rdf:resource="http://purl.org/dc/dcmitype/StillImage" />
      </cc:Work>
    </rdf:RDF>
  </metadata>
  <defs
     id="defs2">
    <linearGradient
       gradientTransform="translate(0,-896)"
       gradientUnits="userSpaceOnUse"
       y2="992"
       x2="32"
       y1="32"
       x1="32"
       id="lgrad">
      <stop
         id="stop2"
         stop-color="#f8f8f8"
         offset="0%" />
      <stop
         id="stop4"
         stop-color="#ccc"
         offset="100%" />
    </linearGradient>
    <radialGradient
       gradientTransform="translate(0,-896)"
       gradientUnits="userSpaceOnUse"
       r="440"
       cy="512"
       cx="512"
       fy="494.39999"
       fx="512"
       y2="100%"
       x2="0%"
       y1="0%"
       x1="0%"
       id="rgrad">
      <stop
         id="stop7"
         stop-color="#00f0ff"
         offset="0%" />
      <stop
         id="stop9"
         stop-color="#0070e0"
         offset="100%" />
    </radialGradient>
    <radialGradient
       id="rgrad-3"
       x1="0%"
       y1="0%"
       x2="0%"
       y2="100%"
       fx="523.57568"
       fy="306.1813"
       cx="523.57568"
       cy="306.1813"
       r="440"
       gradientUnits="userSpaceOnUse"
       gradientTransform="matrix(0.03099337,0,0,0.03032562,85.198869,42.985295)">
      <stop
         offset="0%"
         stop-color="#00f0ff"
         id="stop7-6"
         style="stop-color:#03d7e4;stop-opacity:1" />
      <stop
         offset="100%"
         stop-color="#0070e0"
         id="stop9-7" />
    </radialGradient>
    <linearGradient
       gradientTransform="matrix(0.6222521,0,0,0.6222521,-73.020133,-51.518026)"
       inkscape:collect="always"
       xlink:href="#linearGradient839"
       id="linearGradient841"
       x1="169.37762"
       y1="134.82233"
       x2="169.37762"
       y2="88.382416"
       gradientUnits="userSpaceOnUse" />
    <linearGradient
       inkscape:collect="always"
       id="linearGradient839">
      <stop
         style="stop-color:#1a0d0d;stop-opacity:1"
         offset="0"
         id="stop837" />
      <stop
         style="stop-color:#4a4a4a;stop-opacity:1"
         offset="1"
         id="stop835" />
    </linearGradient>
    <filter
       inkscape:collect="always"
       style="color-interpolation-filters:sRGB"
       id="filter1444"
       x="-0.037278992"
       width="1.074558"
       y="-0.037278992"
       height="1.074558">
      <feGaussianBlur
         inkscape:collect="always"
         stdDeviation="0.45638404"
         id="feGaussianBlur1446" />
    </filter>
  </defs>
  <sodipodi:namedview
     inkscape:snap-bbox-midpoints="true"
     inkscape:snap-bbox="true"
     inkscape:document-rotation="0"
     id="base"
     pagecolor="#ffffff"
     bordercolor="#666666"
     borderopacity="1.0"
     inkscape:pageopacity="0.0"
     inkscape:pageshadow="2"
     inkscape:zoom="2.7182444"
     inkscape:cx="73.545563"
     inkscape:cy="93.827273"
     inkscape:document-units="mm"
     inkscape:current-layer="layer1"
     showgrid="false"
     units="px"
     inkscape:window-width="1280"
     inkscape:window-height="736"
     inkscape:window-x="0"
     inkscape:window-y="0"
     inkscape:window-maximized="1"
     inkscape:snap-page="true" />
  <g
     inkscape:label="Layer 1"
     inkscape:groupmode="layer"
     id="layer1">
    <rect
       ry="7.4310913"
       rx="7.4310913"
       y="2.3714337"
       x="2.2491136"
       height="29.381741"
       width="29.381741"
       id="rect981"
       style="opacity:0.806752;fill:#000000;fill-opacity:1;fill-rule:evenodd;stroke-width:0.157;stroke-miterlimit:4;stroke-dasharray:none;filter:url(#filter1444)"
       transform="matrix(1.0511371,0,0,1.0511371,-0.87291362,-1.0014889)" />
    <rect
       style="fill:url(#linearGradient841);fill-opacity:1;fill-rule:evenodd;stroke-width:0.164637"
       id="rect10"
       width="30.884237"
       height="30.884237"
       x="1.4912138"
       y="1.4912144"
       rx="7.8110952"
       ry="7.8110952" />
    <g
       id="g885"
       transform="matrix(0.90848898,0,0,0.90848898,-11.888177,-21.194015)">
      <path
         fill="#ec2529"
         d="m 18.518501,48.045709 h 4.802242 v 1.5007 h -4.802242 z m 0,-1.950912 h 4.802242 v 1.500701 h -4.802242 z m 0,-1.95091 h 4.802242 v 1.5007 h -4.802242 z"
         id="path4"
         style="stroke-width:0.0750351" />
      <path
         fill="#f1796e"
         d="m 18.518501,42.192976 h 4.802242 v 1.500701 h -4.802242 z m 0,-1.950911 h 4.802242 v 1.500701 h -4.802242 z"
         id="path6"
         style="stroke-width:0.0750351" />
      <path
         fill="#f6dd05"
         d="m 23.845988,48.045709 h 4.802242 v 1.5007 h -4.802242 z m 0,-1.950912 h 4.802242 v 1.500701 h -4.802242 z m 0,-1.95091 h 4.802242 v 1.5007 h -4.802242 z"
         id="path8"
         style="stroke-width:0.0750351" />
      <path
         fill="#d81996"
         d="m 29.323545,48.045709 h 4.802242 v 1.5007 h -4.802242 z m 0,-1.950912 h 4.802242 v 1.500701 h -4.802242 z m 0,-1.95091 h 4.802242 v 1.5007 h -4.802242 z"
         id="path10"
         style="stroke-width:0.0750351" />
      <path
         fill="#e78dcc"
         d="m 29.323545,42.192976 h 4.802242 v 1.500701 h -4.802242 z m 0,-1.950911 h 4.802242 v 1.500701 h -4.802242 z m 0,-1.950911 h 4.802242 v 1.500701 h -4.802242 z m 0,-1.95091 h 4.802242 v 1.5007 h -4.802242 z"
         id="path12"
         style="stroke-width:0.0750351" />
      <path
         fill="#adda1a"
         d="m 34.726068,48.045709 h 4.802241 v 1.5007 h -4.802241 z m 0,-1.950912 h 4.802241 v 1.500701 h -4.802241 z m 0,-1.95091 h 4.802241 v 1.5007 h -4.802241 z"
         id="path14"
         style="stroke-width:0.0750351" />
      <path
         fill="#d6e465"
         d="m 34.726068,42.192976 h 4.802241 v 1.500701 h -4.802241 z m 0,-1.950911 h 4.802241 v 1.500701 h -4.802241 z"
         id="path16"
         style="stroke-width:0.0750351" />
      <path
         fill="#56bbe9"
         d="m 40.128589,48.045709 h 4.802242 v 1.5007 h -4.802242 z m 0,-1.950912 h 4.802242 v 1.500701 h -4.802242 z m 0,-1.95091 h 4.802242 v 1.5007 h -4.802242 z"
         id="path18"
         style="stroke-width:0.0750351" />
      <path
         fill="#b0d8e6"
         d="m 40.128589,42.192976 h 4.802242 v 1.500701 h -4.802242 z m 0,-1.950911 h 4.802242 v 1.500701 h -4.802242 z m 0,-1.950911 h 4.802242 v 1.500701 h -4.802242 z m 0,-1.95091 h 4.802242 v 1.5007 h -4.802242 z m 0,-1.950911 h 4.802242 v 1.500701 h -4.802242 z"
         id="path20"
         style="stroke-width:0.0750351" />
    </g>
  </g>
</svg>
