<?xml version="1.0" encoding="UTF-8" standalone="no"?>
<svg
   xmlns:dc="http://purl.org/dc/elements/1.1/"
   xmlns:cc="http://creativecommons.org/ns#"
   xmlns:rdf="http://www.w3.org/1999/02/22-rdf-syntax-ns#"
   xmlns:svg="http://www.w3.org/2000/svg"
   xmlns="http://www.w3.org/2000/svg"
   xmlns:xlink="http://www.w3.org/1999/xlink"
   xmlns:sodipodi="http://sodipodi.sourceforge.net/DTD/sodipodi-0.dtd"
   xmlns:inkscape="http://www.inkscape.org/namespaces/inkscape"
   width="128"
   height="128"
   viewBox="0 0 33.866666 33.866667"
   version="1.1"
   id="svg6"
   sodipodi:docname="estrella.svg"
   inkscape:version="1.0.1 (3bc2e813f5, 2020-09-07)">
  <metadata
     id="metadata82">
    <rdf:RDF>
      <cc:Work
         rdf:about="">
        <dc:format>image/svg+xml</dc:format>
        <dc:type
           rdf:resource="http://purl.org/dc/dcmitype/StillImage" />
      </cc:Work>
    </rdf:RDF>
  </metadata>
  <defs
     id="defs2">
    <linearGradient
       gradientTransform="translate(0,-896)"
       gradientUnits="userSpaceOnUse"
       y2="992"
       x2="32"
       y1="32"
       x1="32"
       id="lgrad">
      <stop
         id="stop2"
         stop-color="#f8f8f8"
         offset="0%" />
      <stop
         id="stop4"
         stop-color="#ccc"
         offset="100%" />
    </linearGradient>
    <radialGradient
       gradientTransform="translate(0,-896)"
       gradientUnits="userSpaceOnUse"
       r="440"
       cy="512"
       cx="512"
       fy="494.39999"
       fx="512"
       y2="100%"
       x2="0%"
       y1="0%"
       x1="0%"
       id="rgrad">
      <stop
         id="stop7"
         stop-color="#00f0ff"
         offset="0%" />
      <stop
         id="stop9"
         stop-color="#0070e0"
         offset="100%" />
    </radialGradient>
    <radialGradient
       id="rgrad-3"
       x1="0%"
       y1="0%"
       x2="0%"
       y2="100%"
       fx="523.57568"
       fy="306.1813"
       cx="523.57568"
       cy="306.1813"
       r="440"
       gradientUnits="userSpaceOnUse"
       gradientTransform="matrix(0.03099337,0,0,0.03032562,85.198869,42.985295)">
      <stop
         offset="0%"
         stop-color="#00f0ff"
         id="stop7-6"
         style="stop-color:#03d7e4;stop-opacity:1" />
      <stop
         offset="100%"
         stop-color="#0070e0"
         id="stop9-7" />
    </radialGradient>
    <filter
       inkscape:collect="always"
       style="color-interpolation-filters:sRGB"
       id="filter1444"
       x="-0.037278991"
       width="1.074558"
       y="-0.037278991"
       height="1.074558">
      <feGaussianBlur
         inkscape:collect="always"
         stdDeviation="0.45638404"
         id="feGaussianBlur1446" />
    </filter>
    <linearGradient
       gradientTransform="matrix(0.76508106,0,0,0.76508106,-93.667644,-67.230039)"
       inkscape:collect="always"
       xlink:href="#linearGradient839-3"
       id="linearGradient841"
       x1="169.37762"
       y1="134.82233"
       x2="169.37762"
       y2="98.394875"
       gradientUnits="userSpaceOnUse" />
    <linearGradient
       inkscape:collect="always"
       id="linearGradient839-3">
      <stop
         style="stop-color:#0055d4;stop-opacity:1"
         offset="0"
         id="stop835-6" />
      <stop
         style="stop-color:#d5e5ff;stop-opacity:1"
         offset="1"
         id="stop837-7" />
    </linearGradient>
  </defs>
  <sodipodi:namedview
     inkscape:snap-bbox-midpoints="true"
     inkscape:snap-bbox="true"
     inkscape:document-rotation="0"
     id="base"
     pagecolor="#ffffff"
     bordercolor="#666666"
     borderopacity="1.0"
     inkscape:pageopacity="0.0"
     inkscape:pageshadow="2"
     inkscape:zoom="2.6471967"
     inkscape:cx="111.80275"
     inkscape:cy="63.943763"
     inkscape:document-units="mm"
     inkscape:current-layer="layer1"
     showgrid="false"
     units="px"
     inkscape:window-width="1280"
     inkscape:window-height="736"
     inkscape:window-x="0"
     inkscape:window-y="0"
     inkscape:window-maximized="1"
     inkscape:snap-page="true"
     inkscape:bbox-paths="true"
     inkscape:bbox-nodes="true"
     inkscape:snap-global="true"
     inkscape:snap-intersection-paths="true"
     inkscape:snap-smooth-nodes="true"
     inkscape:snap-bbox-edge-midpoints="true"
     inkscape:object-paths="true"
     inkscape:snap-object-midpoints="true"
     inkscape:snap-midpoints="true"
     showguides="false" />
  <g
     inkscape:label="Layer 1"
     inkscape:groupmode="layer"
     id="layer1">
    <rect
       ry="14.69087"
       rx="14.69087"
       y="2.3714337"
       x="2.2491136"
       height="29.381741"
       width="29.381741"
       id="rect981"
       style="opacity:0.806752;fill:#000000;fill-opacity:1;fill-rule:evenodd;stroke-width:0.157;stroke-miterlimit:4;stroke-dasharray:none;filter:url(#filter1444)"
       transform="matrix(1.0511371,0,0,1.0511371,-0.87291362,-1.0014889)" />
    <g
       id="g1031"
       transform="matrix(0.81331528,0,0,0.81331528,3.1611943,3.1611943)">
      <rect
         style="fill:url(#linearGradient841);fill-opacity:1;fill-rule:evenodd;stroke-width:0.202427"
         id="rect10-5"
         width="37.973267"
         height="37.973267"
         x="-2.0533013"
         y="-2.0533018"
         rx="18.986633"
         ry="18.986633" />
      <path
         style="fill:#0d77d1;fill-opacity:1;stroke:#000000;stroke-width:1.25413;stroke-linecap:round;stroke-linejoin:round;stroke-miterlimit:4;stroke-dasharray:none;stroke-opacity:1;paint-order:markers stroke fill"
         d="M 14.141013,30.95328 C 13.6945,30.88652 13.085617,30.71785 12.787942,30.578371 12.490266,30.43888 11.593523,30.074163 10.795182,29.767874 6.8705208,28.26216 3.508746,24.820051 2.6489008,21.426926 2.4725743,20.731108 2.2157515,19.95034 2.0781824,19.691892 1.7591009,19.092432 1.7518746,15.378104 2.0682224,14.559283 2.2003005,14.217398 2.4552557,13.267902 2.6347875,12.449289 3.3209606,9.3206125 6.495168,5.4224071 9.405286,4.1345421 c 0.818609,-0.36227 1.780812,-0.80119 2.138228,-0.975366 0.382275,-0.186299 1.94224,-0.316703 3.788601,-0.316703 2.978285,0 3.246832,0.04721 5.252823,0.923369 2.218473,0.968972 3.235534,1.8121257 4.761945,3.9477304 1.8896,2.6437235 1.628144,4.6489485 -0.952768,7.3072045 -0.950797,0.979288 -1.728726,1.940071 -1.728726,2.135051 0,0.448411 1.24047,2.796713 1.742568,3.298818 0.578945,0.578939 0.798497,1.960052 0.389856,2.452444 -0.451035,0.543467 -2.006029,0.357734 -3.49273,-0.417181 -0.594861,-0.310052 -1.543618,-0.637625 -2.108351,-0.727934 -1.022206,-0.163455 -1.033843,-0.154713 -2.609735,1.959264 -0.870623,1.167912 -1.594461,2.138778 -1.608534,2.157491 -0.01409,0.01869 -0.269136,0.107216 -0.566813,0.196787 -1.146053,0.344614 -1.34498,-0.145958 -1.488378,-3.670483 L 12.787966,19.079337 10.803138,18.386703 C 8.307186,17.5157 6.976849,16.505576 7.398563,15.801618 c 0.431762,-0.720729 1.713198,-1.355391 3.521216,-1.743986 2.519416,-0.541475 2.439694,-0.438489 2.649252,-3.42267 0.21944,-3.1248775 0.548373,-3.7065705 1.723117,-3.0472075 0.402055,0.225669 1.004532,0.833391 1.338839,1.350497 2.012288,3.1126315 2.283405,3.2996805 3.70679,2.5573725 1.012516,-0.528024 1.13821,-0.36586 0.669972,0.864389 -0.343483,0.902479 -0.533666,1.043592 -1.858938,1.379366 -0.971481,0.246129 -1.50798,0.279007 -1.568928,0.09615 -0.240548,-0.721651 -1.342037,-2.068509 -1.757023,-2.148429 -0.396521,-0.07635 -0.464059,0.145909 -0.464059,1.527169 v 1.616544 l -1.420723,0.333365 c -2.849883,0.668707 -3.134358,1.323447 -0.882736,2.03167 0.81683,0.256924 1.602234,0.608227 1.745346,0.780657 0.143109,0.172443 0.296787,1.160891 0.341502,2.196553 l 0.0813,1.883009 1.150114,-1.205793 c 0.632557,-0.663174 1.150111,-1.302508 1.150111,-1.420716 0,-0.118158 0.243552,-0.214935 0.541225,-0.214935 0.297676,0 0.541229,0.09652 0.541229,0.21448 0,0.118035 0.56758,0.366291 1.261287,0.55184 1.695797,0.453551 2.009245,0.111273 1.125592,-1.22897 -1.454299,-2.205822 -1.451817,-2.160501 -0.163798,-2.991754 2.355127,-1.519952 2.994887,-2.324461 3.128357,-3.933936 0.07424,-0.895249 -0.01259,-1.716025 -0.223397,-2.112009 -0.513974,-0.9653955 -1.935041,-2.6773025 -2.222451,-2.6773025 -0.138161,0 -0.583448,-0.236575 -0.989529,-0.525737 -0.40608,-0.28915 -1.553621,-0.6759493 -2.550086,-0.8595559 -3.277732,-0.6039475 -7.294108,0.4984906 -9.545596,2.6201279 -1.19409,1.125222 -2.732561,3.4758725 -2.954637,4.5144125 -0.103589,0.484449 -0.323318,1.047908 -0.488284,1.252134 -0.395967,0.490216 -0.3992917,4.372879 -0.0044,5.202324 0.170305,0.357758 0.512107,1.220658 0.759563,1.917547 0.574942,1.61915 3.415059,4.535928 5.208015,5.34859 0.71499,0.324068 1.7165,0.794771 2.225579,1.04599 0.725776,0.358176 1.689712,0.456785 4.465138,0.456785 3.451654,0 3.586573,-0.02238 5.433839,-0.901594 2.374992,-1.130374 4.760386,-3.567301 5.551039,-5.670962 0.295778,-0.786977 0.537783,-1.662676 0.537783,-1.945974 0,-0.283309 0.121773,-0.590373 0.270616,-0.682367 0.400205,-0.247334 0.328409,-3.445281 -0.10103,-4.49973 -0.653187,-1.60388 -1.121452,-4.553905 -0.803095,-5.0594535 0.813277,-1.291517 2.377572,-0.480724 3.005476,1.5577725 0.686167,2.227648 0.65993,8.531845 -0.04401,10.572259 -0.282412,0.8186 -0.599295,1.549264 -0.704183,1.623688 -0.104891,0.07439 -0.405596,0.592685 -0.668236,1.151718 -0.705724,1.502148 -4.410456,4.874727 -6.001583,5.463515 -0.722374,0.267301 -1.613156,0.673674 -1.979516,0.903032 -0.484695,0.303438 -1.553384,0.435551 -3.92391,0.485038 -1.791789,0.03738 -3.623125,0.0134 -4.069639,-0.05324 z"
         id="path847" />
    </g>
  </g>
</svg>
