<?xml version="1.0" encoding="UTF-8" standalone="no"?>
<svg
   xmlns:dc="http://purl.org/dc/elements/1.1/"
   xmlns:cc="http://creativecommons.org/ns#"
   xmlns:rdf="http://www.w3.org/1999/02/22-rdf-syntax-ns#"
   xmlns:svg="http://www.w3.org/2000/svg"
   xmlns="http://www.w3.org/2000/svg"
   xmlns:xlink="http://www.w3.org/1999/xlink"
   xmlns:sodipodi="http://sodipodi.sourceforge.net/DTD/sodipodi-0.dtd"
   xmlns:inkscape="http://www.inkscape.org/namespaces/inkscape"
   inkscape:version="1.0 (4035a4fb49, 2020-05-01)"
   sodipodi:docname="settings.svg"
   id="svg6"
   version="1.1"
   viewBox="0 0 33.866666 33.866667"
   height="128"
   width="128">
  <metadata
     id="metadata82">
    <rdf:RDF>
      <cc:Work
         rdf:about="">
        <dc:format>image/svg+xml</dc:format>
        <dc:type
           rdf:resource="http://purl.org/dc/dcmitype/StillImage" />
      </cc:Work>
    </rdf:RDF>
  </metadata>
  <defs
     id="defs2">
    <linearGradient
       id="linearGradient890"
       inkscape:collect="always">
      <stop
         style="stop-color:#b3b3b3;stop-opacity:1"
         offset="0"
         id="stop886" />
      <stop
         style="stop-color:#4d4d4d;stop-opacity:1"
         offset="1"
         id="stop888" />
    </linearGradient>
    <linearGradient
       inkscape:collect="always"
       id="linearGradient2462">
      <stop
         id="stop2460"
         offset="0"
         style="stop-color:#cccccc;stop-opacity:1" />
      <stop
         id="stop2458"
         offset="1"
         style="stop-color:#1a1a1a;stop-opacity:1;" />
    </linearGradient>
    <linearGradient
       inkscape:collect="always"
       id="linearGradient863">
      <stop
         style="stop-color:#d7d7f4;stop-opacity:1"
         offset="0"
         id="stop859" />
      <stop
         style="stop-color:#b3b3b3;stop-opacity:1"
         offset="1"
         id="stop861" />
    </linearGradient>
    <linearGradient
       inkscape:collect="always"
       id="linearGradient904">
      <stop
         style="stop-color:#d45500;stop-opacity:1;"
         offset="0"
         id="stop900" />
      <stop
         style="stop-color:#de87aa;stop-opacity:1"
         offset="1"
         id="stop902" />
    </linearGradient>
    <linearGradient
       id="lgrad"
       x1="32"
       y1="32"
       x2="32"
       y2="992"
       gradientUnits="userSpaceOnUse"
       gradientTransform="translate(0,-896)">
      <stop
         offset="0%"
         stop-color="#f8f8f8"
         id="stop2" />
      <stop
         offset="100%"
         stop-color="#ccc"
         id="stop4" />
    </linearGradient>
    <radialGradient
       id="rgrad"
       x1="0%"
       y1="0%"
       x2="0%"
       y2="100%"
       fx="512"
       fy="494.39999"
       cx="512"
       cy="512"
       r="440"
       gradientUnits="userSpaceOnUse"
       gradientTransform="translate(0,-896)">
      <stop
         offset="0%"
         stop-color="#00f0ff"
         id="stop7" />
      <stop
         offset="100%"
         stop-color="#0070e0"
         id="stop9" />
    </radialGradient>
    <radialGradient
       gradientTransform="matrix(0.03099337,0,0,0.03032562,85.198869,42.985295)"
       gradientUnits="userSpaceOnUse"
       r="440"
       cy="306.1813"
       cx="523.57568"
       fy="306.1813"
       fx="523.57568"
       y2="100%"
       x2="0%"
       y1="0%"
       x1="0%"
       id="rgrad-3">
      <stop
         style="stop-color:#03d7e4;stop-opacity:1"
         id="stop7-6"
         stop-color="#00f0ff"
         offset="0%" />
      <stop
         id="stop9-7"
         stop-color="#0070e0"
         offset="100%" />
    </radialGradient>
    <clipPath
       clipPathUnits="userSpaceOnUse"
       id="clipPath888">
      <rect
         style="fill:#000000;stroke-width:0.465;stroke-linecap:round;stroke-linejoin:round;paint-order:markers stroke fill"
         id="rect890"
         width="30.884235"
         height="30.884235"
         x="1.4912138"
         y="1.4912144"
         rx="3.686466"
         ry="3.686466" />
    </clipPath>
    <linearGradient
       gradientUnits="userSpaceOnUse"
       y2="20.327351"
       x2="18.715511"
       y1="20.327351"
       x1="1.4912138"
       id="linearGradient862"
       xlink:href="#linearGradient904"
       inkscape:collect="always" />
    <linearGradient
       gradientUnits="userSpaceOnUse"
       y2="98.394875"
       x2="169.37762"
       y1="134.82233"
       x1="169.37762"
       id="linearGradient841"
       xlink:href="#linearGradient863"
       inkscape:collect="always"
       gradientTransform="matrix(0.6222521,0,0,0.6222521,-73.020132,-51.518027)" />
    <linearGradient
       id="linearGradient839"
       inkscape:collect="always">
      <stop
         id="stop835"
         offset="0"
         style="stop-color:#ffd39f;stop-opacity:1" />
      <stop
         id="stop837"
         offset="1"
         style="stop-color:#e2e0c1;stop-opacity:1" />
    </linearGradient>
    <linearGradient
       inkscape:collect="always"
       xlink:href="#linearGradient839"
       id="linearGradient883"
       gradientUnits="userSpaceOnUse"
       gradientTransform="matrix(0.49430116,0,0,0.49430116,-54.5234,-37.442677)"
       x1="169.37762"
       y1="134.82233"
       x2="175.84618"
       y2="94.203697" />
    <clipPath
       clipPathUnits="userSpaceOnUse"
       id="clipPath891">
      <rect
         style="fill:url(#linearGradient895);fill-opacity:1;fill-rule:evenodd;stroke-width:0.130783"
         id="rect893"
         width="24.533649"
         height="24.533649"
         x="-3.5767143"
         y="5.3033185"
         rx="6.2049346"
         ry="6.2049346" />
    </clipPath>
    <linearGradient
       inkscape:collect="always"
       xlink:href="#linearGradient839"
       id="linearGradient895"
       gradientUnits="userSpaceOnUse"
       gradientTransform="matrix(0.49430117,0,0,0.49430117,-62.766621,-36.805867)"
       x1="169.37762"
       y1="134.82233"
       x2="175.84618"
       y2="94.203697" />
    <radialGradient
       inkscape:collect="always"
       xlink:href="#linearGradient2462"
       id="radialGradient2464"
       cx="-584.99414"
       cy="-22.706251"
       fx="-584.99414"
       fy="-22.706251"
       r="76.83594"
       gradientTransform="matrix(1.1607449,0,0,1.0052364,433.83136,32.501473)"
       gradientUnits="userSpaceOnUse" />
    <clipPath
       clipPathUnits="userSpaceOnUse"
       id="clipPath2510">
      <path
         d="m 20.259147,16.071763 -5.136945,8.897319 5.136945,8.897585 H 30.53302 l 5.13693,-8.897585 -5.13693,-8.897319 z m 5.136929,5.177673 a 3.7196861,3.7196861 0 0 1 3.719642,3.719646 3.7196861,3.7196861 0 0 1 -3.719642,3.719641 3.7196861,3.7196861 0 0 1 -3.719642,-3.719641 3.7196861,3.7196861 0 0 1 3.719642,-3.719646 z"
         style="fill:url(#radialGradient2514);fill-opacity:1;stroke-width:0.47454;stroke-linecap:round;stroke-linejoin:round;paint-order:markers stroke fill"
         id="path2512" />
    </clipPath>
    <radialGradient
       inkscape:collect="always"
       xlink:href="#linearGradient2462"
       id="radialGradient2514"
       gradientUnits="userSpaceOnUse"
       gradientTransform="matrix(0.15520538,0,0,0.13441204,112.70485,22.748323)"
       cx="-584.99414"
       cy="-22.706251"
       fx="-584.99414"
       fy="-22.706251"
       r="76.835938" />
    <radialGradient
       inkscape:collect="always"
       xlink:href="#linearGradient890"
       id="radialGradient2516"
       gradientUnits="userSpaceOnUse"
       gradientTransform="matrix(1.1607449,0,0,1.0052364,433.83136,32.501473)"
       cx="-584.99414"
       cy="-22.706251"
       fx="-584.99414"
       fy="-22.706251"
       r="76.83594" />
  </defs>
  <sodipodi:namedview
     inkscape:snap-global="true"
     inkscape:bbox-nodes="true"
     inkscape:snap-bbox-edge-midpoints="true"
     inkscape:bbox-paths="true"
     inkscape:snap-page="true"
     inkscape:window-maximized="1"
     inkscape:window-y="0"
     inkscape:window-x="0"
     inkscape:window-height="736"
     inkscape:window-width="1280"
     units="px"
     showgrid="false"
     inkscape:current-layer="layer1"
     inkscape:document-units="mm"
     inkscape:cy="-33.610307"
     inkscape:cx="195.07404"
     inkscape:zoom="1.2235831"
     inkscape:pageshadow="2"
     inkscape:pageopacity="0.0"
     borderopacity="1.0"
     bordercolor="#666666"
     pagecolor="#ffffff"
     id="base"
     inkscape:document-rotation="0"
     inkscape:snap-bbox="true"
     inkscape:snap-bbox-midpoints="true" />
  <g
     id="layer1"
     inkscape:groupmode="layer"
     inkscape:label="Layer 1">
    <rect
       ry="7.8110952"
       rx="7.8110952"
       y="1.4912144"
       x="1.4912138"
       height="30.884237"
       width="30.884237"
       id="rect10"
       style="fill:url(#linearGradient841);fill-opacity:1;fill-rule:evenodd;stroke-width:0.164637" />
    <g
       id="g881"
       clip-path="url(#clipPath891)"
       style="fill:url(#linearGradient862);fill-opacity:1;stroke:none;stroke-width:1.1;stroke-miterlimit:4;stroke-dasharray:none;stroke-opacity:1"
       transform="translate(8.2432222,-0.63680987)" />
    <g
       id="g1384"
       transform="matrix(0.15017971,0,0,0.15017971,48.914892,8.6807572)">
      <g
         id="g2406">
        <g
           id="g2508">
          <g
             transform="translate(343.40639,32.587995)"
             style="fill:#a0872c;fill-opacity:1;stroke-width:3.54898;stroke-linecap:round;stroke-linejoin:round;paint-order:markers stroke fill"
             id="g2403">
            <path
               d="m -600.955,-50.0189 -38.418,66.541 12.351,11.6805 38.418,-66.541 z"
               id="path2377" />
            <path
               d="m -639.373,16.5221 38.418,66.543 12.351,11.6805 -38.418,-66.543 z"
               id="path2379" />
            <path
               sodipodi:nodetypes="cccccc"
               style="fill:#333333"
               d="m -600.955,83.0651 h 76.836 l 12.351,11.6805 h -44.13532 -32.70068 z"
               id="path2381" />
            <path
               style="fill:#060606;fill-opacity:1"
               d="m -524.119,83.0651 38.418,-66.543 12.351,11.6805 -38.418,66.543 z"
               id="path2383" />
            <path
               sodipodi:nodetypes="cccccc"
               style="fill:#333333"
               d="m -485.701,16.5221 -33.44087,-57.92047 -4.97713,-8.62053 12.351,11.6805 38.418,66.541 z"
               id="path2385" />
            <path
               style="fill:#333333"
               d="m -524.119,-50.0189 h -76.836 l 12.351,11.6805 h 76.836 z"
               id="path2387" />
            <path
               style="fill:#1a1a1a"
               d="m -562.537,-11.2962 c 7.4,1e-4 14.126,2.89001 19.11,7.60293 l 12.351,11.68048 c -4.983,-4.71291 -11.709,-7.602859 -19.11,-7.602941 z"
               id="path2389" />
            <path
               d="m -543.427,-3.69327 c 5.362,5.07099 8.708,12.25247 8.708,20.21537 l 12.352,11.6805 c 0,-7.9629 -3.346,-15.1444 -8.709,-20.21539 z"
               id="path2391" />
            <path
               d="m -534.719,16.5221 c 0,15.3636 -12.455,27.8182 -27.818,27.8184 l 12.351,11.6805 c 15.364,-2e-4 27.819,-12.4548 27.819,-27.8184 z"
               id="path2393" />
            <path
               d="m -562.537,44.3405 c -7.401,-10e-5 -14.127,-2.89 -19.11,-7.6029 l 12.351,11.6804 c 4.984,4.713 11.71,7.6029 19.11,7.603 z"
               id="path2395" />
            <path
               style="fill:#1a1a1a"
               d="m -581.647,36.7376 c -5.363,-5.071 -8.709,-12.2525 -8.709,-20.2155 l 12.352,11.6805 c 0,7.963 3.346,15.1445 8.708,20.2154 z"
               id="path2397" />
            <path
               style="fill:#000000"
               d="m -590.356,16.5221 c 0,-15.36354 12.455,-27.8181 27.819,-27.8183 l 12.351,11.680469 c -15.363,1.7e-4 -27.818,12.454731 -27.818,27.818331 z"
               id="path2399" />
            <path
               style="fill:#1a1a1a"
               d="m -562.537,-11.2962 -38.418,-38.7227 12.351,11.6805 38.418,38.722669 z"
               id="path2401" />
          </g>
          <path
             id="path889"
             style="fill:#a0872c;fill-opacity:1;stroke-width:3.54898;stroke-linecap:round;stroke-linejoin:round;paint-order:markers stroke fill"
             d="m -257.54894,-17.43088 -38.41797,66.541016 38.41797,66.542964 H -180.713 L -142.29503,49.110136 -180.713,-17.43088 Z m 38.41797,38.722656 a 27.818668,27.818668 0 0 1 27.81836,27.81836 27.818668,27.818668 0 0 1 -27.81836,27.818359 27.818668,27.818668 0 0 1 -27.81836,-27.818359 27.818668,27.818668 0 0 1 27.81836,-27.81836 z" />
          <path
             d="m -257.54852,-17.430921 -38.41797,66.541016 38.41797,66.542975 h 76.83594 l 38.41797,-66.542975 -38.41797,-66.541016 z m 38.41797,38.722656 a 27.818668,27.818668 0 0 1 27.81836,27.81836 27.818668,27.818668 0 0 1 -27.81836,27.818359 27.818668,27.818668 0 0 1 -27.81836,-27.818359 27.818668,27.818668 0 0 1 27.81836,-27.81836 z"
             style="fill:url(#radialGradient2516);fill-opacity:1;stroke-width:3.54898;stroke-linecap:round;stroke-linejoin:round;paint-order:markers stroke fill"
             id="path889-3" />
        </g>
      </g>
    </g>
  </g>
</svg>
