<?xml version="1.0" encoding="UTF-8" standalone="no"?>
<svg
   xmlns:dc="http://purl.org/dc/elements/1.1/"
   xmlns:cc="http://creativecommons.org/ns#"
   xmlns:rdf="http://www.w3.org/1999/02/22-rdf-syntax-ns#"
   xmlns:svg="http://www.w3.org/2000/svg"
   xmlns="http://www.w3.org/2000/svg"
   xmlns:xlink="http://www.w3.org/1999/xlink"
   xmlns:sodipodi="http://sodipodi.sourceforge.net/DTD/sodipodi-0.dtd"
   xmlns:inkscape="http://www.inkscape.org/namespaces/inkscape"
   width="128"
   height="128"
   viewBox="0 0 33.866666 33.866667"
   version="1.1"
   id="svg6"
   sodipodi:docname="settings.svg"
   inkscape:version="1.0 (4035a4fb49, 2020-05-01)">
  <metadata
     id="metadata82">
    <rdf:RDF>
      <cc:Work
         rdf:about="">
        <dc:format>image/svg+xml</dc:format>
        <dc:type
           rdf:resource="http://purl.org/dc/dcmitype/StillImage" />
      </cc:Work>
    </rdf:RDF>
  </metadata>
  <defs
     id="defs2">
    <linearGradient
       inkscape:collect="always"
       id="linearGradient890">
      <stop
         id="stop886"
         offset="0"
         style="stop-color:#b3b3b3;stop-opacity:1" />
      <stop
         id="stop888"
         offset="1"
         style="stop-color:#4d4d4d;stop-opacity:1" />
    </linearGradient>
    <linearGradient
       id="linearGradient2462"
       inkscape:collect="always">
      <stop
         style="stop-color:#cccccc;stop-opacity:1"
         offset="0"
         id="stop2460" />
      <stop
         style="stop-color:#1a1a1a;stop-opacity:1;"
         offset="1"
         id="stop2458" />
    </linearGradient>
    <linearGradient
       id="linearGradient863"
       inkscape:collect="always">
      <stop
         id="stop859"
         offset="0"
         style="stop-color:#d7d7f4;stop-opacity:1" />
      <stop
         id="stop861"
         offset="1"
         style="stop-color:#b3b3b3;stop-opacity:1" />
    </linearGradient>
    <linearGradient
       id="linearGradient904"
       inkscape:collect="always">
      <stop
         id="stop900"
         offset="0"
         style="stop-color:#d45500;stop-opacity:1;" />
      <stop
         id="stop902"
         offset="1"
         style="stop-color:#de87aa;stop-opacity:1" />
    </linearGradient>
    <linearGradient
       gradientTransform="translate(0,-896)"
       gradientUnits="userSpaceOnUse"
       y2="992"
       x2="32"
       y1="32"
       x1="32"
       id="lgrad">
      <stop
         id="stop2"
         stop-color="#f8f8f8"
         offset="0%" />
      <stop
         id="stop4"
         stop-color="#ccc"
         offset="100%" />
    </linearGradient>
    <radialGradient
       gradientTransform="translate(0,-896)"
       gradientUnits="userSpaceOnUse"
       r="440"
       cy="512"
       cx="512"
       fy="494.39999"
       fx="512"
       y2="100%"
       x2="0%"
       y1="0%"
       x1="0%"
       id="rgrad">
      <stop
         id="stop7"
         stop-color="#00f0ff"
         offset="0%" />
      <stop
         id="stop9"
         stop-color="#0070e0"
         offset="100%" />
    </radialGradient>
    <radialGradient
       id="rgrad-3"
       x1="0%"
       y1="0%"
       x2="0%"
       y2="100%"
       fx="523.57568"
       fy="306.1813"
       cx="523.57568"
       cy="306.1813"
       r="440"
       gradientUnits="userSpaceOnUse"
       gradientTransform="matrix(0.03099337,0,0,0.03032562,85.198869,42.985295)">
      <stop
         offset="0%"
         stop-color="#00f0ff"
         id="stop7-6"
         style="stop-color:#03d7e4;stop-opacity:1" />
      <stop
         offset="100%"
         stop-color="#0070e0"
         id="stop9-7" />
    </radialGradient>
    <clipPath
       id="clipPath888"
       clipPathUnits="userSpaceOnUse">
      <rect
         ry="3.686466"
         rx="3.686466"
         y="1.4912144"
         x="1.4912138"
         height="30.884235"
         width="30.884235"
         id="rect890"
         style="fill:#000000;stroke-width:0.465;stroke-linecap:round;stroke-linejoin:round;paint-order:markers stroke fill" />
    </clipPath>
    <linearGradient
       inkscape:collect="always"
       xlink:href="#linearGradient904"
       id="linearGradient862"
       x1="1.4912138"
       y1="20.327351"
       x2="18.715511"
       y2="20.327351"
       gradientUnits="userSpaceOnUse" />
    <linearGradient
       gradientTransform="matrix(0.6222521,0,0,0.6222521,-73.020132,-51.518027)"
       inkscape:collect="always"
       xlink:href="#linearGradient863"
       id="linearGradient841"
       x1="169.37762"
       y1="134.82233"
       x2="169.37762"
       y2="98.394875"
       gradientUnits="userSpaceOnUse" />
    <linearGradient
       inkscape:collect="always"
       id="linearGradient839">
      <stop
         style="stop-color:#ffd39f;stop-opacity:1"
         offset="0"
         id="stop835" />
      <stop
         style="stop-color:#e2e0c1;stop-opacity:1"
         offset="1"
         id="stop837" />
    </linearGradient>
    <linearGradient
       y2="94.203697"
       x2="175.84618"
       y1="134.82233"
       x1="169.37762"
       gradientTransform="matrix(0.49430116,0,0,0.49430116,-54.5234,-37.442677)"
       gradientUnits="userSpaceOnUse"
       id="linearGradient883"
       xlink:href="#linearGradient839"
       inkscape:collect="always" />
    <clipPath
       id="clipPath891"
       clipPathUnits="userSpaceOnUse">
      <rect
         ry="6.2049346"
         rx="6.2049346"
         y="5.3033185"
         x="-3.5767143"
         height="24.533649"
         width="24.533649"
         id="rect893"
         style="fill:url(#linearGradient895);fill-opacity:1;fill-rule:evenodd;stroke-width:0.130783" />
    </clipPath>
    <linearGradient
       y2="94.203697"
       x2="175.84618"
       y1="134.82233"
       x1="169.37762"
       gradientTransform="matrix(0.49430117,0,0,0.49430117,-62.766621,-36.805867)"
       gradientUnits="userSpaceOnUse"
       id="linearGradient895"
       xlink:href="#linearGradient839"
       inkscape:collect="always" />
    <radialGradient
       gradientUnits="userSpaceOnUse"
       gradientTransform="matrix(1.1607449,0,0,1.0052364,433.83136,32.501473)"
       r="76.83594"
       fy="-22.706251"
       fx="-584.99414"
       cy="-22.706251"
       cx="-584.99414"
       id="radialGradient2464"
       xlink:href="#linearGradient2462"
       inkscape:collect="always" />
    <clipPath
       id="clipPath2510"
       clipPathUnits="userSpaceOnUse">
      <path
         id="path2512"
         style="fill:url(#radialGradient2514);fill-opacity:1;stroke-width:0.47454;stroke-linecap:round;stroke-linejoin:round;paint-order:markers stroke fill"
         d="m 20.259147,16.071763 -5.136945,8.897319 5.136945,8.897585 H 30.53302 l 5.13693,-8.897585 -5.13693,-8.897319 z m 5.136929,5.177673 a 3.7196861,3.7196861 0 0 1 3.719642,3.719646 3.7196861,3.7196861 0 0 1 -3.719642,3.719641 3.7196861,3.7196861 0 0 1 -3.719642,-3.719641 3.7196861,3.7196861 0 0 1 3.719642,-3.719646 z" />
    </clipPath>
    <radialGradient
       r="76.835938"
       fy="-22.706251"
       fx="-584.99414"
       cy="-22.706251"
       cx="-584.99414"
       gradientTransform="matrix(0.15520538,0,0,0.13441204,112.70485,22.748323)"
       gradientUnits="userSpaceOnUse"
       id="radialGradient2514"
       xlink:href="#linearGradient2462"
       inkscape:collect="always" />
    <radialGradient
       r="76.83594"
       fy="-22.706251"
       fx="-584.99414"
       cy="-22.706251"
       cx="-584.99414"
       gradientTransform="matrix(1.1607449,0,0,1.0052364,433.83136,32.501473)"
       gradientUnits="userSpaceOnUse"
       id="radialGradient2516"
       xlink:href="#linearGradient890"
       inkscape:collect="always" />
    <filter
       height="1.1736714"
       y="-0.086835693"
       width="1.1736714"
       x="-0.086835693"
       id="filter1180"
       style="color-interpolation-filters:sRGB"
       inkscape:collect="always">
      <feGaussianBlur
         id="feGaussianBlur1182"
         stdDeviation="1.1174392"
         inkscape:collect="always" />
    </filter>
  </defs>
  <sodipodi:namedview
     inkscape:snap-bbox-midpoints="true"
     inkscape:snap-bbox="true"
     inkscape:document-rotation="0"
     id="base"
     pagecolor="#ffffff"
     bordercolor="#666666"
     borderopacity="1.0"
     inkscape:pageopacity="0.0"
     inkscape:pageshadow="2"
     inkscape:zoom="3.0138574"
     inkscape:cx="95.408137"
     inkscape:cy="27.977595"
     inkscape:document-units="mm"
     inkscape:current-layer="layer1"
     showgrid="false"
     units="px"
     inkscape:window-width="1280"
     inkscape:window-height="736"
     inkscape:window-x="0"
     inkscape:window-y="0"
     inkscape:window-maximized="1"
     inkscape:snap-page="true"
     inkscape:bbox-paths="true"
     inkscape:snap-bbox-edge-midpoints="true"
     inkscape:bbox-nodes="true"
     inkscape:snap-global="true" />
  <g
     inkscape:label="Layer 1"
     inkscape:groupmode="layer"
     id="layer1">
    <rect
       ry="7.8110952"
       rx="7.8110952"
       y="1.4912144"
       x="1.4912138"
       height="30.884237"
       width="30.884237"
       id="rect10-5"
       style="fill:#000000;fill-opacity:1;fill-rule:evenodd;stroke-width:0.165;stroke-miterlimit:4;stroke-dasharray:none;filter:url(#filter1180)" />
    <rect
       style="fill:url(#linearGradient841);fill-opacity:1;fill-rule:evenodd;stroke-width:0.164637"
       id="rect10"
       width="30.884237"
       height="30.884237"
       x="1.4912138"
       y="1.4912144"
       rx="7.8110952"
       ry="7.8110952" />
    <g
       transform="translate(8.2432222,-0.63680987)"
       style="fill:url(#linearGradient862);fill-opacity:1;stroke:none;stroke-width:1.1;stroke-miterlimit:4;stroke-dasharray:none;stroke-opacity:1"
       clip-path="url(#clipPath891)"
       id="g881" />
    <g
       transform="matrix(0.15017971,0,0,0.15017971,48.914892,8.6807572)"
       id="g1384">
      <g
         id="g2406">
        <g
           id="g2508">
          <g
             id="g2403"
             style="fill:#a0872c;fill-opacity:1;stroke-width:3.54898;stroke-linecap:round;stroke-linejoin:round;paint-order:markers stroke fill"
             transform="translate(343.40639,32.587995)">
            <path
               id="path2377"
               d="m -600.955,-50.0189 -38.418,66.541 12.351,11.6805 38.418,-66.541 z" />
            <path
               id="path2379"
               d="m -639.373,16.5221 38.418,66.543 12.351,11.6805 -38.418,-66.543 z" />
            <path
               id="path2381"
               d="m -600.955,83.0651 h 76.836 l 12.351,11.6805 h -44.13532 -32.70068 z"
               style="fill:#333333"
               sodipodi:nodetypes="cccccc" />
            <path
               id="path2383"
               d="m -524.119,83.0651 38.418,-66.543 12.351,11.6805 -38.418,66.543 z"
               style="fill:#060606;fill-opacity:1" />
            <path
               id="path2385"
               d="m -485.701,16.5221 -33.44087,-57.92047 -4.97713,-8.62053 12.351,11.6805 38.418,66.541 z"
               style="fill:#333333"
               sodipodi:nodetypes="cccccc" />
            <path
               id="path2387"
               d="m -524.119,-50.0189 h -76.836 l 12.351,11.6805 h 76.836 z"
               style="fill:#333333" />
            <path
               id="path2389"
               d="m -562.537,-11.2962 c 7.4,1e-4 14.126,2.89001 19.11,7.60293 l 12.351,11.68048 c -4.983,-4.71291 -11.709,-7.602859 -19.11,-7.602941 z"
               style="fill:#1a1a1a" />
            <path
               id="path2391"
               d="m -543.427,-3.69327 c 5.362,5.07099 8.708,12.25247 8.708,20.21537 l 12.352,11.6805 c 0,-7.9629 -3.346,-15.1444 -8.709,-20.21539 z" />
            <path
               id="path2393"
               d="m -534.719,16.5221 c 0,15.3636 -12.455,27.8182 -27.818,27.8184 l 12.351,11.6805 c 15.364,-2e-4 27.819,-12.4548 27.819,-27.8184 z" />
            <path
               id="path2395"
               d="m -562.537,44.3405 c -7.401,-10e-5 -14.127,-2.89 -19.11,-7.6029 l 12.351,11.6804 c 4.984,4.713 11.71,7.6029 19.11,7.603 z" />
            <path
               id="path2397"
               d="m -581.647,36.7376 c -5.363,-5.071 -8.709,-12.2525 -8.709,-20.2155 l 12.352,11.6805 c 0,7.963 3.346,15.1445 8.708,20.2154 z"
               style="fill:#1a1a1a" />
            <path
               id="path2399"
               d="m -590.356,16.5221 c 0,-15.36354 12.455,-27.8181 27.819,-27.8183 l 12.351,11.680469 c -15.363,1.7e-4 -27.818,12.454731 -27.818,27.818331 z"
               style="fill:#000000" />
            <path
               id="path2401"
               d="m -562.537,-11.2962 -38.418,-38.7227 12.351,11.6805 38.418,38.722669 z"
               style="fill:#1a1a1a" />
          </g>
          <path
             d="m -257.54894,-17.43088 -38.41797,66.541016 38.41797,66.542964 H -180.713 L -142.29503,49.110136 -180.713,-17.43088 Z m 38.41797,38.722656 a 27.818668,27.818668 0 0 1 27.81836,27.81836 27.818668,27.818668 0 0 1 -27.81836,27.818359 27.818668,27.818668 0 0 1 -27.81836,-27.818359 27.818668,27.818668 0 0 1 27.81836,-27.81836 z"
             style="fill:#a0872c;fill-opacity:1;stroke-width:3.54898;stroke-linecap:round;stroke-linejoin:round;paint-order:markers stroke fill"
             id="path889" />
          <path
             id="path889-3"
             style="fill:url(#radialGradient2516);fill-opacity:1;stroke-width:3.54898;stroke-linecap:round;stroke-linejoin:round;paint-order:markers stroke fill"
             d="m -257.54852,-17.430921 -38.41797,66.541016 38.41797,66.542975 h 76.83594 l 38.41797,-66.542975 -38.41797,-66.541016 z m 38.41797,38.722656 a 27.818668,27.818668 0 0 1 27.81836,27.81836 27.818668,27.818668 0 0 1 -27.81836,27.818359 27.818668,27.818668 0 0 1 -27.81836,-27.818359 27.818668,27.818668 0 0 1 27.81836,-27.81836 z" />
        </g>
      </g>
    </g>
  </g>
</svg>
